<?xml version="1.0" encoding="utf-8"?>
<!-- Generator: Adobe Illustrator 19.1.0, SVG Export Plug-In . SVG Version: 6.00 Build 0)  -->
<svg version="1.1" xmlns="http://www.w3.org/2000/svg" xmlns:xlink="http://www.w3.org/1999/xlink" x="0px" y="0px"
	 viewBox="0 0 100 100" style="enable-background:new 0 0 100 100;" xml:space="preserve">
<style type="text/css">
	.st0{display:none;}
	.st1{display:inline;fill:#231F20;}
	.st2{fill:#231F20;}
</style>
<g id="Layer_1" class="st0">
	<path class="st1" d="M50,43.7c-1.8,0-3.3,0.7-4.5,1.9s-1.9,2.7-1.9,4.5s0.7,3.3,1.9,4.5s2.7,1.9,4.5,1.9c1.8,0,3.3-0.7,4.5-1.9
		c1.1-1.1,1.9-2.7,1.9-4.5s-0.7-3.3-1.9-4.5C53.3,44.4,51.8,43.7,50,43.7z"/>
</g>
<g id="Layer_2" class="st0">
	<path class="st1" d="M50,43.7c-1.8,0-3.3,0.7-4.5,1.9s-1.9,2.7-1.9,4.5s0.7,5.1,1.9,8c1.1,2.9,2.7,5.4,4.5,5.4
		c1.8,0,3.3-2.5,4.5-5.4c1.1-2.9,1.9-6.3,1.9-8s-0.7-3.3-1.9-4.5C53.3,44.4,51.8,43.7,50,43.7z"/>
</g>
<g id="Layer_3" class="st0">
	<path class="st1" d="M50,43.7c-2,0-3.9,1.4-4.8,3.5c-0.5,1-0.7,2.2-0.7,3.4c0,3.9,3.3,5.1,2.5,13.8c-0.6,6.2-1,12.4,3.1,12.4
		s3.6-6.2,3.1-12.4c-0.8-8.7,2.5-9.9,2.5-13.8c0-1.3-0.3-2.4-0.7-3.4C53.9,45.1,52,43.7,50,43.7z"/>
</g>
<g id="Layer_4" class="st0">
	<path class="st1" d="M50,43.7c-1.4,0-3.3,4.2-3.7,6.8c-0.3,1.5-0.1,4.7,0.2,5.8c1.1,4.1,3.3,9.4-0.9,19.4C43.1,81.4,46,88,50,88
		s6.9-6.7,4.5-12.4c-4.3-10-2-15.3-0.9-19.4c0.3-1.1,0.4-4.2,0.2-5.8C53.3,47.9,51.4,43.7,50,43.7z"/>
</g>
<g id="Layer_5" class="st0">
	<path class="st1" d="M50,43.7c1.1,0,2.1,6.8,2.1,10.2c0,3.3-1.2,10.5-1.3,12.9C50.3,74.8,52,82.1,55.2,89c2.6,5.7-1.1,11-5.2,11
		s-7.8-5.3-5.2-11c3.2-6.9,4.9-14.2,4.5-22.2c-0.1-2.4-1.3-9.6-1.3-12.9C47.9,50.5,48.9,43.7,50,43.7z"/>
</g>
<g id="Layer_6" class="st0">
	<path class="st1" d="M50,70.3c-0.2,0-0.4,0.1-0.5,0.4c-0.1,0.2-0.2,0.6-0.2,1c0.3,8.1-1.3,10.4-4.5,17.3c-2.6,5.7,1.1,11,5.2,11
		s7.8-5.3,5.2-11c-3.2-6.9-4.8-9.2-4.5-17.3c0-0.4,0-0.8-0.2-1C50.4,70.4,50.2,70.3,50,70.3z"/>
</g>
<g id="Layer_7">
	<path class="st2" d="M50,100c1.8,0,3.3-0.7,4.5-1.9c1.1-1.1,1.9-2.7,1.9-4.5s-0.7-5.1-1.9-8c-1.1-2.9-2.7-5.4-4.5-5.4
		c-1.8,0-3.3,2.5-4.5,5.4c-1.1,2.9-1.9,6.3-1.9,8s0.7,3.3,1.9,4.5S48.2,100,50,100z"/>
</g>
<g id="Layer_8" class="st0">
	<path class="st1" d="M43.7,93.7c0,1.8,0.7,3.3,1.9,4.5s2.7,1.9,4.5,1.9c1.8,0,3.3-0.7,4.5-1.9c1.1-1.1,1.9-2.7,1.9-4.5
		s-0.7-3.3-1.9-4.5c-1.1-1.1-2.7-1.9-4.5-1.9c-1.8,0-3.3,0.7-4.5,1.9S43.7,91.9,43.7,93.7z"/>
</g>
<g id="Layer_9">
</g>
</svg>
