<?xml version="1.0" encoding="utf-8"?>
<!-- Generator: Adobe Illustrator 19.1.0, SVG Export Plug-In . SVG Version: 6.00 Build 0)  -->
<svg version="1.1" xmlns="http://www.w3.org/2000/svg" xmlns:xlink="http://www.w3.org/1999/xlink" x="0px" y="0px"
	 viewBox="0 0 100 100" style="enable-background:new 0 0 100 100;" xml:space="preserve">
<style type="text/css">
	.st0{display:none;}
	.st1{display:inline;fill:#231F20;}
	.st2{fill:#231F20;}
</style>
<g id="Layer_1" class="st0">
	<path class="st1" d="M56.3,50c0-1.8-0.7-3.3-1.9-4.5s-2.7-1.9-4.5-1.9s-3.3,0.7-4.5,1.9s-1.9,2.7-1.9,4.5s0.7,3.3,1.9,4.5
		s2.7,1.9,4.5,1.9s3.3-0.7,4.5-1.9S56.3,51.8,56.3,50z"/>
</g>
<g id="Layer_2" class="st0">
	<path class="st1" d="M56.3,50c0-1.8-0.7-3.3-1.9-4.5s-2.7-1.9-4.5-1.9s-5.1,0.7-8,1.9s-5.4,2.7-5.4,4.5s2.5,3.3,5.4,4.5
		s6.3,1.9,8,1.9s3.3-0.7,4.5-1.9S56.3,51.8,56.3,50z"/>
</g>
<g id="Layer_3" class="st0">
	<path class="st1" d="M56.3,50c0-2-1.4-3.9-3.5-4.8c-1-0.5-2.2-0.7-3.4-0.7c-3.9,0-5.1,3.3-13.8,2.5c-6.2-0.6-12.4-1-12.4,3.1
		s6.2,3.6,12.4,3.1c8.7-0.8,9.9,2.5,13.8,2.5c1.3,0,2.4-0.3,3.4-0.7C54.9,53.9,56.3,52,56.3,50z"/>
</g>
<g id="Layer_4" class="st0">
	<path class="st1" d="M56.3,50c0-1.4-4.2-3.3-6.8-3.7c-1.5-0.3-4.7-0.1-5.8,0.2c-4.1,1.1-9.4,3.3-19.4-0.9C18.6,43.1,12,46,12,50
		s6.7,6.9,12.4,4.5c10-4.3,15.3-2,19.4-0.9c1.1,0.3,4.2,0.4,5.8,0.2C52.1,53.3,56.3,51.4,56.3,50z"/>
</g>
<g id="Layer_5">
	<path class="st2" d="M56.3,50c0,1.1-6.8,2.1-10.2,2.1c-3.3,0-10.5-1.2-12.9-1.3C25.2,50.3,17.9,52,11,55.2C5.3,57.8,0,54,0,50
		c0-4,5.3-7.8,11-5.2c6.9,3.2,14.2,4.9,22.2,4.5c2.4-0.1,9.6-1.3,12.9-1.3C49.5,47.9,56.3,48.9,56.3,50z"/>
</g>
<g id="Layer_6" class="st0">
	<path class="st1" d="M29.7,50c0-0.2-0.1-0.4-0.4-0.5c-0.2-0.1-0.6-0.2-1-0.2C20.2,49.6,17.9,48,11,44.8C5.3,42.2,0,46,0,50
		c0,4,5.3,7.8,11,5.2c6.9-3.2,9.2-4.8,17.3-4.5c0.4,0,0.8,0,1-0.2C29.6,50.4,29.7,50.2,29.7,50z"/>
</g>
<g id="Layer_7" class="st0">
	<path class="st1" d="M0,50c0,1.8,0.7,3.3,1.9,4.5s2.7,1.9,4.5,1.9s5.1-0.7,8-1.9s5.4-2.7,5.4-4.5s-2.5-3.3-5.4-4.5s-6.3-1.9-8-1.9
		S3,44.4,1.9,45.5S0,48.2,0,50z"/>
</g>
<g id="Layer_8" class="st0">
	<path class="st1" d="M6.3,43.7c-1.8,0-3.3,0.7-4.5,1.9S0,48.2,0,50s0.7,3.3,1.9,4.5s2.7,1.9,4.5,1.9s3.3-0.7,4.5-1.9
		s1.9-2.7,1.9-4.5s-0.7-3.3-1.9-4.5S8.1,43.7,6.3,43.7z"/>
</g>
<g id="Layer_9">
</g>
</svg>
