<?xml version="1.0" encoding="utf-8"?>
<!-- Generator: Adobe Illustrator 19.1.0, SVG Export Plug-In . SVG Version: 6.00 Build 0)  -->
<svg version="1.1" xmlns="http://www.w3.org/2000/svg" xmlns:xlink="http://www.w3.org/1999/xlink" x="0px" y="0px"
	 viewBox="0 0 100 100" style="enable-background:new 0 0 100 100;" xml:space="preserve">
<style type="text/css">
	.st0{fill:#231F20;}
</style>
<g id="Layer_1">
	<path class="st0" d="M50,56.3c1.8,0,3.3-0.7,4.5-1.9s1.9-2.7,1.9-4.5s-0.7-3.3-1.9-4.5s-2.7-1.9-4.5-1.9s-3.3,0.7-4.5,1.9
		s-1.9,2.7-1.9,4.5s0.7,3.3,1.9,4.5S48.2,56.3,50,56.3z"/>
</g>
<g id="Layer_2">
	<path class="st0" d="M50,56.3c1.8,0,3.3-0.7,4.5-1.9s1.9-2.7,1.9-4.5s-0.7-5.1-1.9-8s-2.7-5.4-4.5-5.4s-3.3,2.5-4.5,5.4
		s-1.9,6.3-1.9,8s0.7,3.3,1.9,4.5S48.2,56.3,50,56.3z"/>
</g>
<g id="Layer_3">
	<path class="st0" d="M50,56.3c2,0,3.9-1.4,4.8-3.5c0.5-1,0.7-2.2,0.7-3.4c0-3.9-3.3-5.1-2.5-13.8c0.6-6.2,1-12.4-3.1-12.4
		s-3.6,6.2-3.1,12.4c0.8,8.7-2.5,9.9-2.5,13.8c0,1.3,0.3,2.4,0.7,3.4C46.1,54.9,48,56.3,50,56.3z"/>
</g>
<g id="Layer_4">
	<path class="st0" d="M50,56.3c1.4,0,3.3-4.2,3.7-6.8c0.3-1.5,0.1-4.7-0.2-5.8c-1.1-4.1-3.3-9.4,0.9-19.4C56.9,18.6,54,12,50,12
		s-6.9,6.7-4.5,12.4c4.3,10,2,15.3,0.9,19.4c-0.3,1.1-0.4,4.2-0.2,5.8C46.7,52.1,48.6,56.3,50,56.3z"/>
</g>
<g id="Layer_5">
	<path class="st0" d="M50,56.3c-1.1,0-2.1-6.8-2.1-10.2c0-3.3,1.2-10.5,1.3-12.9c0.4-8.1-1.3-15.4-4.5-22.2C42.2,5.3,46,0,50,0
		c4,0,7.8,5.3,5.2,11c-3.2,6.9-4.9,14.2-4.5,22.2c0.1,2.4,1.3,9.6,1.3,12.9C52.1,49.5,51.1,56.3,50,56.3z"/>
</g>
<g id="Layer_6">
	<path class="st0" d="M50,29.7c0.2,0,0.4-0.1,0.5-0.4c0.1-0.2,0.2-0.6,0.2-1C50.4,20.2,52,17.9,55.2,11C57.8,5.3,54,0,50,0
		c-4,0-7.8,5.3-5.2,11c3.2,6.9,4.8,9.2,4.5,17.3c0,0.4,0,0.8,0.2,1C49.6,29.6,49.8,29.7,50,29.7z"/>
</g>
<g id="Layer_7">
	<path class="st0" d="M50,17.7c-1.8,0-2.6-4.5-3.4-6.2c-0.8-1.8-2.3-3.9-2.3-5.9c0-1.4,0.3-2.6,1.4-3.7S48.5,0,50,0
		c1.5,0,3.1,0.7,4.2,1.9s1.4,2.4,1.4,3.7c0,2-1.5,4.1-2.3,5.9C52.6,13.2,51.8,17.7,50,17.7z"/>
</g>
<g id="Layer_8">
	<path class="st0" d="M50,12.7c1.8,0,3.3-0.7,4.5-1.9s1.9-2.7,1.9-4.5S55.6,3,54.5,1.9S51.8,0,50,0c-1.8,0-3.3,0.7-4.5,1.9
		s-1.9,2.7-1.9,4.5s0.7,3.3,1.9,4.5S48.2,12.7,50,12.7z"/>
</g>
</svg>
